<?xml version="1.0" standalone="no"?>
<!DOCTYPE svg PUBLIC "-//W3C//DTD SVG 20010904//EN"
 "http://www.w3.org/TR/2001/REC-SVG-20010904/DTD/svg10.dtd">
<svg version="1.0" xmlns="http://www.w3.org/2000/svg"
 width="1600.000000pt" height="1600.000000pt" viewBox="0 0 1600.000000 1600.000000"
 preserveAspectRatio="xMidYMid meet">
<metadata>
Created by potrace 1.14, written by Peter Selinger 2001-2017
</metadata>
<g transform="translate(0.000000,1600.000000) scale(0.100000,-0.100000)"
fill="#000000" stroke="none">
<path d="M7460 11624 c-99 -68 -107 -72 -231 -135 -80 -40 -207 -85 -274 -97
-54 -9 -211 -8 -260 2 -80 17 -111 8 -128 -37 -4 -11 8 -62 29 -127 28 -82 42
-111 60 -121 19 -10 215 -12 924 -12 769 0 902 2 921 15 24 15 89 183 89 229
0 31 -30 61 -62 61 -13 1 -41 -3 -63 -8 -68 -14 -244 -9 -315 10 -132 35 -307
121 -473 232 -44 30 -89 54 -101 53 -12 0 -64 -30 -116 -65z"/>
<path d="M22 10879 c-51 -47 -68 -28 664 -760 l682 -682 1769 -1 1768 -1 283
-283 c322 -322 314 -309 237 -386 -76 -78 -68 -82 -350 199 -135 135 -256 249
-268 254 -12 4 -712 7 -1555 7 l-1534 -1 -23 -27 c-20 -24 -22 -32 -14 -57 6
-17 241 -257 600 -612 324 -320 595 -586 601 -591 7 -4 386 -8 843 -8 l830 0
257 -258 c192 -192 258 -263 258 -281 0 -35 -89 -121 -124 -121 -23 0 -69 41
-249 223 l-222 222 -624 2 -623 2 -24 -24 c-13 -13 -24 -34 -24 -47 0 -17 179
-202 685 -708 l685 -685 750 0 750 0 21 -22 c20 -19 22 -34 25 -140 6 -309 31
-459 101 -602 37 -79 59 -108 127 -175 90 -90 171 -141 321 -205 212 -90 360
-187 506 -331 123 -121 243 -284 304 -413 10 -21 26 -42 36 -48 29 -15 1315
-7 1330 8 44 44 3 366 -68 533 -77 183 -140 279 -262 400 -149 148 -308 242
-543 321 -68 22 -130 42 -138 44 -8 2 -67 23 -130 48 -535 207 -765 470 -846
967 -13 83 -46 208 -71 269 -41 102 -108 181 -399 462 -272 263 -359 378 -412
540 -23 67 -47 175 -57 250 -3 24 -8 60 -11 79 -3 19 -8 125 -11 235 -5 190
-4 201 15 225 17 22 27 24 78 22 68 -2 103 -17 109 -46 2 -12 6 -104 9 -206 3
-102 7 -194 10 -205 2 -11 7 -42 10 -70 40 -289 76 -346 440 -704 276 -272
345 -349 383 -431 50 -108 93 -244 108 -345 3 -22 7 -47 10 -55 2 -8 6 -31 9
-50 45 -299 216 -513 529 -664 121 -59 209 -93 401 -155 288 -94 481 -205 651
-376 107 -107 201 -237 258 -357 48 -100 67 -148 60 -148 -3 0 -1 -6 5 -12 18
-22 65 -219 78 -326 4 -31 8 -66 10 -77 1 -11 3 -46 3 -78 1 -47 5 -62 26 -82
l24 -25 445 0 c476 0 490 1 504 49 9 34 9 415 -1 511 -15 155 -23 207 -72 435
-3 11 -18 61 -34 110 -113 352 -281 634 -515 869 -168 169 -282 248 -551 383
-99 50 -209 107 -243 127 -35 20 -65 36 -67 36 -15 0 -391 244 -452 294 -10 8
-54 43 -98 78 -74 58 -295 271 -340 328 -58 73 -116 152 -150 205 -99 156
-189 383 -240 605 -2 8 -8 30 -14 48 -5 18 -10 35 -10 37 1 41 -53 199 -106
309 -95 197 -152 264 -531 626 -61 58 -209 200 -329 315 -120 116 -237 228
-260 250 -35 33 -255 244 -505 485 -208 200 -430 412 -468 447 l-47 43 -2485
0 -2486 0 -22 -21z"/>
<path d="M10977 10889 c-34 -20 -1059 -1053 -1070 -1079 -6 -14 -13 -111 -16
-215 -6 -190 -6 -191 -39 -257 -60 -122 -172 -204 -304 -223 -21 -3 -55 -7
-75 -10 -21 -3 -45 -7 -53 -10 -8 -2 -26 -6 -40 -9 -194 -33 -403 -157 -482
-286 -98 -163 -94 -400 10 -558 39 -59 118 -132 178 -163 21 -12 48 -27 59
-34 40 -25 215 -79 290 -90 22 -3 51 -8 65 -10 59 -11 101 -15 199 -20 113 -5
150 -19 152 -58 1 -12 2 -42 3 -66 1 -30 -4 -51 -18 -69 l-20 -25 -133 6 c-74
4 -137 8 -141 11 -4 2 -35 7 -70 10 -139 15 -364 86 -479 152 -149 86 -263
209 -323 350 -48 110 -67 284 -46 419 40 254 205 451 476 566 83 35 265 84
350 93 89 10 134 26 169 58 60 56 60 59 61 471 0 410 -1 420 -57 479 -39 41
-78 50 -253 63 -41 3 -100 8 -130 11 -30 3 -77 8 -105 9 -239 15 -370 32 -419
54 -53 23 -115 83 -139 134 -19 40 -21 48 -33 124 -10 70 -43 116 -109 151
-27 14 -117 16 -845 17 -854 2 -871 1 -955 -42 -52 -27 -79 -57 -106 -118 -20
-46 -21 -58 -15 -208 3 -88 8 -162 10 -166 2 -3 7 -40 10 -80 4 -41 9 -78 11
-81 2 -3 6 -28 10 -54 3 -27 7 -51 9 -55 2 -3 7 -24 10 -45 23 -145 86 -313
154 -413 54 -79 251 -312 326 -387 162 -160 272 -324 343 -512 17 -43 52 -163
77 -266 111 -451 217 -651 492 -932 140 -144 416 -346 669 -490 55 -32 107
-61 115 -66 8 -5 114 -59 235 -121 183 -93 374 -204 395 -228 3 -3 23 -19 45
-36 77 -57 200 -175 282 -270 l51 -60 843 -1 844 -1 686 685 c626 624 687 687
685 715 -1 17 -12 38 -24 48 -21 16 -61 18 -634 18 -337 0 -619 -4 -628 -9 -9
-5 -114 -106 -233 -224 -174 -174 -221 -216 -243 -216 -35 0 -124 87 -124 121
0 17 67 90 257 281 l257 258 841 0 840 0 602 603 c346 345 601 608 600 617 -7
38 -19 58 -40 67 -17 7 -2989 11 -3090 4 -9 0 -130 -113 -267 -251 -287 -287
-278 -282 -355 -204 -77 77 -85 64 239 387 l284 284 1767 0 1767 0 684 684
c404 404 684 691 684 702 0 22 -18 59 -34 69 -18 13 -4968 9 -4989 -3z m-2756
-618 c14 -17 19 -38 18 -80 -2 -68 -10 -86 -46 -98 -33 -11 -548 -10 -580 1
-26 8 -41 47 -38 101 3 57 12 81 38 92 13 6 133 10 305 9 l284 -1 19 -24z"/>
</g>
</svg>
